<?xml version="1.0" encoding="utf-8"?>
<!-- Generator: Adobe Illustrator 19.2.1, SVG Export Plug-In . SVG Version: 6.00 Build 0)  -->
<svg version="1.1" id="Layer_1" xmlns="http://www.w3.org/2000/svg" xmlns:xlink="http://www.w3.org/1999/xlink" x="0px" y="0px" width="300px" height="81px"
	 viewBox="0 0 300 81" style="enable-background:new 0 0 300 81;" xml:space="preserve">
<style type="text/css">
	.st0{fill:#379CF4;}
	.st1{fill:#FFFFFF;}
	.st2{fill:#191919;}
</style>
<path class="st0" d="M5.6,16.6L31.7,2.4c3.6-1.9,7.9-1.9,11.5,0L69.6,17c3.7,2.1,6,5.9,5.9,10.1l-0.5,30c-0.1,4.1-2.4,7.8-6.1,9.8
	L43.1,80.7c-3.6,1.9-7.9,1.9-11.5-0.1L5,65.8c-3.7-2.1-6-5.9-5.9-10.1l0.5-29.4C-0.3,22.3,2,18.6,5.6,16.6z"/>
<path class="st1" d="M69.9,14.5L44.2-0.1c-1.9-1-4.3-1.6-7-1.6s-5,0.5-7,1.6L4.6,14.5c-3.9,2.3-7,7.4-7,11.8v29.1
	c0,0.7,0.1,1.5,0.2,2.3c0.8,3.8,3.4,7.6,6.8,9.6l25.6,14.6c1.9,1,4.3,1.6,7,1.6s5-0.5,7-1.6l25.6-14.6c3.9-2.3,7-7.4,7-11.8V26.2
	C76.9,21.9,73.8,16.7,69.9,14.5z M6.2,64.8c-2.9-1.6-5.4-6-5.4-9.4V43c9.2-0.6,14.6,1.6,21.3,4.7c6.1,2.7,13.4,5.9,25.4,7.7
	c-2.2,0.5-4.5,0.8-6.8,1.2c-12.2,2.1-23.7,4.1-30,10.8L6.2,64.8z M44.8,39.4c-5.5,2.2-12.6,4.1-23.3,4.8c-4.7-2.1-9.2-3.8-15.1-4.2
	L26,20.8L40.4,35l0,0l0,0L44.8,39.4z M43.4,34.1l14-13.8L68,30.7c-6.1,0.5-10.3,2.7-15.1,4.9c-1.7,0.8-3.3,1.6-5.3,2.6L43.4,34.1z
	 M74,55.3c0,3.4-2.5,7.7-5.5,9.4L42.9,79.3c-1.5,0.7-3.4,1.3-5.5,1.3c-2.1,0-4.1-0.5-5.5-1.3L13,68.7c5.9-5.7,16.6-7.5,28-9.5
	c12.9-2.3,26.1-4.5,32.9-12.6L74,55.3L74,55.3z M74,41.4c-3,6.5-9.9,9.9-18,12c-14.1-1-22.4-3.8-29.2-6.8
	c13.9-1.6,21.3-5.3,27.5-8.4c6-3,10.9-5.5,19.8-4.7L74,41.4L74,41.4z M74,30.7c-0.7-0.1-1.5-0.1-2.1-0.1L58.5,17.3
	c-0.5-0.5-1.5-0.5-2,0L41.4,32.1L27,17.9c-0.5-0.5-1.5-0.5-2,0L2.5,40c-0.5,0-1.1,0.1-1.7,0.1V26.2c0-3.4,2.5-7.7,5.4-9.4L31.9,2.3
	c1.5-0.7,3.4-1.3,5.5-1.3c2.1,0,4.1,0.5,5.5,1.3l25.6,14.6c2.9,1.6,5.5,6,5.5,9.4L74,30.7L74,30.7z"/>
<g>
	<path class="st2" d="M132.8,53.7h-14.8l-2.7,6.8h-10l15.4-34.9h9.7l15.5,34.9h-10.3L132.8,53.7z M129.8,46.4l-4.5-11.2l-4.5,11.2
		H129.8z"/>
	<path class="st2" d="M148.6,25.6h9.8v27.1H175v7.8h-26.5L148.6,25.6L148.6,25.6z"/>
	<path class="st2" d="M203.1,27.2c2.3,1,4.1,2.6,5.3,4.5c1.3,1.9,1.9,4.2,1.9,6.9c0,2.7-0.6,4.9-1.9,6.9c-1.3,1.9-3,3.4-5.3,4.5
		c-2.3,1-5,1.6-8.2,1.6h-6.1v9.2h-9.8V25.8H195C198.1,25.6,200.8,26.1,203.1,27.2z M198.9,42.3c1-0.8,1.6-2.1,1.6-3.8
		c0-1.7-0.5-2.8-1.6-3.8c-1-0.8-2.6-1.4-4.6-1.4h-5.4v10.2h5.4C196.3,43.6,197.9,43.2,198.9,42.3z"/>
	<path class="st2" d="M215.2,25.6h9.8v34.9h-9.8V25.6z"/>
	<path class="st2" d="M265.3,25.6v34.9h-8.2l-15.4-18.6v18.6h-9.6V25.6h8.2l15.4,18.6V25.6H265.3z"/>
	<path class="st2" d="M276.3,60.2c-2.7-0.6-4.9-1.7-6.5-2.7l3.2-7.2c1.6,1,3.3,1.9,5.4,2.5c2.1,0.6,4.1,0.9,6.1,0.9
		c3.8,0,5.7-0.9,5.7-2.8c0-1-0.5-1.7-1.7-2.2c-1-0.5-2.8-0.9-5.2-1.6c-2.6-0.5-4.9-1.1-6.6-1.8c-1.7-0.6-3.2-1.7-4.5-3.1
		c-1.3-1.5-1.9-3.3-1.9-5.9c0-2.1,0.5-4,1.7-5.7c1.1-1.7,2.8-3,5.2-4.1c2.3-1,5.1-1.6,8.5-1.6c2.3,0,4.6,0.3,6.8,0.7
		c2.2,0.5,4.2,1.3,6,2.3l-3,7.3c-3.3-1.8-6.6-2.7-9.6-2.7c-2,0-3.4,0.3-4.3,0.8c-0.8,0.5-1.4,1.4-1.4,2.3s0.5,1.7,1.7,2.1
		c1,0.5,2.7,0.9,5.1,1.5c2.7,0.5,4.9,1.1,6.6,1.8c1.7,0.6,3.2,1.7,4.5,3c1.3,1.5,1.9,3.3,1.9,5.7c0,2.1-0.5,4-1.7,5.7
		c-1.1,1.8-2.9,3-5.2,4.1c-2.3,1-5.1,1.6-8.5,1.6C281.6,61.2,278.9,60.8,276.3,60.2z"/>
</g>
</svg>
